<svg width="139" height="33" viewBox="0 0 139 33" fill="none" xmlns="http://www.w3.org/2000/svg">
<g clip-path="url(#clip0)">
<path d="M54.9693 20.4067C54.6935 19.7632 54.9693 19.0278 55.6127 18.7521C56.2562 18.4763 56.8996 18.844 57.1754 19.4874C57.4512 20.1309 57.1754 20.8663 56.532 21.142C55.8885 21.4178 55.1531 21.0501 54.9693 20.4067Z" fill="#EFBFB6"/>
<path d="M51.3843 21.9693C51.1085 21.3258 51.3843 20.5904 52.0278 20.3147C52.6712 20.0389 53.3147 20.4066 53.5904 21.0501C53.8662 21.6935 53.5904 22.4289 52.947 22.7047C52.3035 22.8885 51.6601 22.6127 51.3843 21.9693Z" fill="#EFBFB6"/>
<path d="M47.8911 23.4401C47.6154 22.7967 47.8911 22.0613 48.5346 21.7855C49.1781 21.5097 49.8215 21.8774 50.0973 22.5209C50.3731 23.1643 50.0973 23.8997 49.4538 24.1755C48.8104 24.4512 48.075 24.0836 47.8911 23.4401Z" fill="#EFBFB6"/>
<path d="M44.3062 25.0027C44.0304 24.3593 44.3062 23.6239 44.9496 23.3481C45.5931 23.0724 46.2366 23.4401 46.5123 24.0835C46.7881 24.727 46.5123 25.4623 45.8689 25.7381C45.2254 25.9219 44.582 25.6462 44.3062 25.0027Z" fill="#EFBFB6"/>
<path d="M40.8135 26.4736C40.5377 25.8301 40.8135 25.0947 41.457 24.819C42.1004 24.5432 42.7439 24.9109 43.0196 25.5543C43.2954 26.1978 43.0196 26.9332 42.3762 27.2089C41.7327 27.4847 41.0893 27.117 40.8135 26.4736Z" fill="#EFBFB6"/>
<path d="M37.2286 28.0362C36.9528 27.3927 37.2286 26.6573 37.872 26.3816C38.5155 26.1058 39.1589 26.4735 39.4347 27.117C39.7104 27.7604 39.4347 28.4958 38.7912 28.7715C38.2397 28.9554 37.5043 28.6796 37.2286 28.0362Z" fill="#EFBFB6"/>
<path d="M53.315 16.3621C53.0392 15.7186 53.315 14.9833 53.9584 14.7075C54.6019 14.4317 55.2453 14.7994 55.5211 15.4429C55.7969 16.0863 55.5211 16.8217 54.8777 17.0975C54.3261 17.2813 53.5907 17.0056 53.315 16.3621Z" fill="#EFBFB6"/>
<path d="M49.8218 17.8328C49.546 17.1893 49.8218 16.454 50.4653 16.1782C51.1087 15.9024 51.7522 16.2701 52.0279 16.9136C52.3037 17.557 52.0279 18.2924 51.3845 18.5682C50.741 18.8439 50.0976 18.4763 49.8218 17.8328Z" fill="#EFBFB6"/>
<path d="M46.3286 19.3956C46.0529 18.7521 46.3286 18.0167 46.9721 17.741C47.6156 17.4652 48.259 17.8329 48.5348 18.4763C48.8105 19.1198 48.5348 19.8552 47.8913 20.1309C47.2479 20.4067 46.5125 20.039 46.3286 19.3956Z" fill="#EFBFB6"/>
<path d="M42.7437 20.8663C42.4679 20.2228 42.7437 19.4874 43.3871 19.2117C44.0306 18.9359 44.6741 19.3036 44.9498 19.947C45.2256 20.5905 44.9498 21.3259 44.3064 21.6016C43.6629 21.7855 43.0195 21.5097 42.7437 20.8663Z" fill="#EFBFB6"/>
<path d="M39.2505 22.3371C38.9748 21.6936 39.2505 20.9582 39.894 20.6825C40.5374 20.4067 41.1809 20.7744 41.4567 21.4179C41.7324 22.0613 41.4567 22.7967 40.8132 23.0725C40.1697 23.3482 39.4344 22.9805 39.2505 22.3371Z" fill="#EFBFB6"/>
<path d="M35.6656 23.8997C35.3898 23.2562 35.6656 22.5209 36.309 22.2451C36.9525 21.9693 37.5959 22.337 37.8717 22.9805C38.1475 23.6239 37.8717 24.3593 37.2282 24.6351C36.6767 24.8189 35.9413 24.5432 35.6656 23.8997Z" fill="#EFBFB6"/>
<path d="M51.752 12.2256C51.4762 11.5822 51.752 10.8468 52.3954 10.571C53.0389 10.2953 53.6824 10.663 53.9581 11.3064C54.2339 11.9499 53.9581 12.6852 53.3147 12.961C52.7631 13.1448 52.0278 12.8691 51.752 12.2256Z" fill="#EFBFB6"/>
<path d="M48.2588 13.6963C47.9831 13.0529 48.2588 12.3175 48.9023 12.0417C49.5457 11.766 50.1892 12.1337 50.465 12.7771C50.7407 13.4206 50.465 14.1559 49.8215 14.4317C49.178 14.7075 48.5346 14.3398 48.2588 13.6963Z" fill="#EFBFB6"/>
<path d="M44.7661 15.2591C44.4904 14.6156 44.7661 13.8802 45.4096 13.6045C46.0531 13.3287 46.6965 13.6964 46.9723 14.3399C47.248 14.9833 46.9723 15.7187 46.3288 15.9944C45.6854 16.1783 44.95 15.9025 44.7661 15.2591Z" fill="#EFBFB6"/>
<path d="M41.1812 16.7298C40.9054 16.0863 41.1812 15.3509 41.8246 15.0752C42.4681 14.7994 43.1116 15.1671 43.3873 15.8106C43.6631 16.454 43.3873 17.1894 42.7439 17.4652C42.1004 17.7409 41.457 17.3732 41.1812 16.7298Z" fill="#EFBFB6"/>
<path d="M37.688 18.2924C37.4123 17.6489 37.688 16.9136 38.3315 16.6378C38.9749 16.362 39.6184 16.7297 39.8942 17.3732C40.1699 18.0166 39.8942 18.752 39.2507 19.0278C38.6072 19.2116 37.8719 18.9359 37.688 18.2924Z" fill="#EFBFB6"/>
<path d="M34.1031 19.7632C33.8273 19.1198 34.1031 18.3844 34.7465 18.1086C35.39 17.8329 36.0334 18.2005 36.3092 18.844C36.585 19.4875 36.3092 20.2228 35.6657 20.4986C35.0223 20.7744 34.3788 20.4067 34.1031 19.7632Z" fill="#EFBFB6"/>
<path d="M50.1895 8.08911C49.9137 7.44565 50.1895 6.71028 50.8329 6.43451C51.4764 6.25067 52.1199 6.52643 52.3956 7.16989C52.6714 7.81334 52.3956 8.54872 51.7522 8.82448C51.1087 9.10025 50.4653 8.73256 50.1895 8.08911Z" fill="#EFBFB6"/>
<path d="M46.6963 9.65177C46.4206 9.00832 46.6963 8.27294 47.3398 7.99718C47.9832 7.72141 48.6267 8.0891 48.9025 8.73255C49.1782 9.37601 48.9025 10.1114 48.259 10.3872C47.6155 10.571 46.9721 10.2952 46.6963 9.65177Z" fill="#EFBFB6"/>
<path d="M43.1114 11.1225C42.8356 10.4791 43.1114 9.74371 43.7548 9.46794C44.3983 9.19218 45.0417 9.55986 45.3175 10.2033C45.5933 10.8468 45.3175 11.5821 44.674 11.8579C44.1225 12.1337 43.3871 11.766 43.1114 11.1225Z" fill="#EFBFB6"/>
<path d="M39.6182 12.6852C39.3424 12.0418 39.6182 11.3064 40.2617 11.0306C40.9051 10.7549 41.5486 11.1225 41.8243 11.766C42.1001 12.4095 41.8243 13.1448 41.1809 13.4206C40.5374 13.6044 39.894 13.3287 39.6182 12.6852Z" fill="#EFBFB6"/>
<path d="M36.1255 14.1559C35.8498 13.5125 36.1255 12.7771 36.769 12.5013C37.4124 12.2256 38.0559 12.5932 38.3317 13.2367C38.6074 13.8802 38.3317 14.6155 37.6882 14.8913C37.0447 15.1671 36.3094 14.7994 36.1255 14.1559Z" fill="#EFBFB6"/>
<path d="M48.6265 4.04454C48.3507 3.40108 48.6265 2.66571 49.27 2.38994C49.9134 2.11417 50.5569 2.48186 50.8326 3.12532C51.1084 3.76877 50.8326 4.50415 50.1892 4.77991C49.5457 4.96376 48.9023 4.68799 48.6265 4.04454Z" fill="#EFBFB6"/>
<path d="M45.1338 5.5153C44.8581 4.87185 45.1338 4.13647 45.7773 3.8607C46.4207 3.58494 47.0642 3.95263 47.34 4.59608C47.6157 5.23953 47.34 5.97491 46.6965 6.25068C46.053 6.52644 45.3177 6.15875 45.1338 5.5153Z" fill="#EFBFB6"/>
<path d="M41.5489 7.07792C41.2731 6.43447 41.5489 5.69909 42.1923 5.42333C42.8358 5.14756 43.4792 5.51525 43.755 6.1587C44.0307 6.80216 43.755 7.53753 43.1115 7.8133C42.56 7.99714 41.8246 7.72137 41.5489 7.07792Z" fill="#EFBFB6"/>
<path d="M38.0557 8.54869C37.7799 7.90523 38.0557 7.16986 38.6992 6.89409C39.3426 6.61832 39.9861 6.98601 40.2618 7.62947C40.5376 8.27292 40.2618 9.0083 39.6184 9.28406C38.9749 9.46791 38.3315 9.19214 38.0557 8.54869Z" fill="#EFBFB6"/>
<path d="M34.5625 10.0194C34.2868 9.37599 34.5625 8.64062 35.206 8.36485C35.8494 8.08909 36.4929 8.45678 36.7687 9.10023C37.0444 9.74368 36.7687 10.4791 36.1252 10.7548C35.4818 11.0306 34.7464 10.6629 34.5625 10.0194Z" fill="#EFBFB6"/>
<path d="M74.2732 14.7994L80.34 32.5404L52.5796 32.4485L75.8358 26.1058L74.2732 14.7994Z" fill="#902B28"/>
<path d="M11.2144 8.73254V10.2033H6.43442V11.1225H10.7547V18.2005C10.7547 19.2117 10.3871 19.6713 9.65169 19.6713H7.99709L7.81325 18.1086C8.4567 18.2005 8.82439 18.2005 8.91631 18.2005C9.10015 18.2005 9.19208 18.1086 9.19208 17.8328V16.8217L8.64054 17.8328C8.4567 17.4651 8.18093 16.7298 7.99709 15.7186C7.90517 16.454 7.6294 17.1894 7.07787 17.9247L6.52634 17.0055V19.7632H4.77982V17.3732L4.13637 18.3844C3.95252 17.9247 3.76868 17.0974 3.58483 15.9025C3.49291 16.7298 3.21715 17.5571 2.66561 18.2924L2.11408 17.3732V19.8551H0.551407V11.2144H4.87174V10.2952H0.0917969V8.73254H11.2144ZM3.0333 14.4317H2.48177V13.2367H4.04444C4.13637 14.3398 4.41213 15.3509 4.77982 16.1782V12.5013H2.02216V16.5459C2.66561 15.9025 3.0333 15.1671 3.0333 14.4317ZM7.26171 14.4317H6.8021V13.2367H8.36478C8.4567 14.2479 8.73247 15.1671 9.19208 15.9025V12.5013H6.43442V16.2701C6.98595 15.7186 7.26171 15.0752 7.26171 14.4317Z" fill="white"/>
<path d="M19.5792 8.82449H23.5319V9.92755H13.8801V10.3872H18.2923V10.571H20.1308L20.2227 10.1114H21.6934L21.6015 10.571H23.5319V11.6741H21.5096L21.4177 12.0418H23.44V14.8913H18.1085V12.0418H20.0388L20.1308 11.6741H18.2004V11.4902H17.8327V18.6601C18.0166 18.0167 18.2004 17.4652 18.2004 16.8217L19.2115 16.9136C19.1196 17.8328 18.9358 18.6601 18.7519 19.3036L17.7408 19.1197V19.7632H16.4539V15.259C15.7185 15.3509 14.8912 15.4429 14.0639 15.5348L13.972 14.4317C14.1558 14.4317 14.2478 14.4317 14.4316 14.4317V11.4902H13.972V13.2367C13.972 15.7186 13.6962 17.9248 13.1447 19.7632L11.9497 18.7521C12.4093 17.3732 12.6851 15.4429 12.6851 13.2367V8.82449H17.8327C17.7408 8.64064 17.7408 8.4568 17.6489 8.36487L19.4873 8.18103C19.4873 8.36487 19.5792 8.64064 19.5792 8.82449ZM16.1781 15.8106V16.7298H15.6266V17.0975H16.27V17.9248H15.6266V18.3844C15.9024 18.3844 16.0862 18.2925 16.27 18.2925V19.1197C15.5347 19.2117 14.7074 19.3955 13.6962 19.4874L13.5124 18.5682C13.8801 18.5682 14.2478 18.5682 14.5235 18.4763V17.9248H13.972V17.0975H14.5235V16.7298H13.972V15.8106H16.1781ZM16.4539 11.9498V11.5821H15.6266V11.9498H16.4539ZM16.4539 13.1448V12.6852H15.6266V13.1448H16.4539ZM16.4539 14.2479V13.8802H15.6266V14.3398C15.9024 14.3398 16.1781 14.3398 16.4539 14.2479ZM23.5319 15.259V16.3621H21.1419C21.4177 16.6379 21.6015 16.9136 21.8773 17.1894L20.9581 17.9248C20.7742 17.649 20.5904 17.3732 20.4065 17.0975V18.2005C20.4065 18.3844 20.4985 18.5682 20.6823 18.5682H20.9581C21.05 18.5682 21.1419 18.5682 21.2338 18.4763C21.3258 18.4763 21.3258 18.2005 21.3258 17.8328L22.3369 18.0167C22.245 17.7409 22.1531 17.4652 22.0611 17.1894L23.0723 16.9136C23.44 17.649 23.6238 18.3844 23.8076 19.0278L22.5207 19.3036C22.4288 18.9359 22.4288 18.5682 22.3369 18.2005C22.245 18.7521 22.1531 19.2117 21.9692 19.3955C21.7854 19.5794 21.5096 19.6713 21.1419 19.6713H20.0388C19.4873 19.6713 19.3035 19.3036 19.3035 18.5682V17.0055H20.2227C20.1308 16.9136 20.0388 16.8217 20.0388 16.7298L20.4985 16.454H18.1085V15.3509H23.5319V15.259ZM19.5792 13.0529H19.2115V13.9721H19.5792V13.0529ZM20.9581 13.0529H20.5904V13.9721H20.9581V13.0529ZM22.245 13.0529H21.8773V13.9721H22.245V13.0529Z" fill="white"/>
<path d="M28.4959 9.65178C28.312 10.3872 28.1282 11.3983 27.6686 12.5933C28.2201 13.4206 28.4959 14.2479 28.4959 14.8913C28.4959 15.6267 28.312 16.1782 28.0362 16.5459C27.7605 16.8217 27.117 17.0055 26.1059 17.0055V19.8551H24.7271V8.82448H28.4959V9.65178ZM26.3816 15.7186C26.7493 15.7186 26.9332 15.4429 27.0251 14.8913C27.0251 14.2479 26.7493 13.5125 26.1978 12.5933C26.5655 11.6741 26.8413 10.8468 27.0251 10.1114H26.014V15.6267C26.2897 15.7186 26.3816 15.7186 26.3816 15.7186ZM35.6658 13.9721V15.3509H33.7354V17.9248C33.7354 18.1086 33.8273 18.2924 33.9192 18.2924H34.2869C34.3789 18.2924 34.4708 18.1086 34.4708 17.649C34.4708 17.649 34.4708 17.2813 34.4708 16.6379L35.8496 17.0975C35.7577 18.3844 35.5738 19.1197 35.2981 19.3955C35.1142 19.5794 34.8385 19.6713 34.4708 19.6713H33.3677C32.9081 19.6713 32.6323 19.5794 32.4485 19.3955C32.2647 19.0278 32.1727 18.7521 32.1727 18.3844V15.259H31.3454C31.2535 16.454 31.0697 17.3732 30.702 17.9248C30.2424 18.6601 29.5989 19.3036 28.6797 19.7632L27.6686 18.3844C28.4959 18.0167 29.0474 17.649 29.4151 17.0975C29.6908 16.7298 29.8747 16.0863 29.8747 15.259H28.5878V13.8802H35.6658V13.9721ZM32.9081 9.28409H35.5738V12.2256H34.4708V13.0529H29.6908V12.2256H28.5878V9.28409H31.1616C31.0697 8.9164 30.9777 8.64064 30.7939 8.36487L32.5404 8.27295C32.7243 8.54872 32.8162 8.9164 32.9081 9.28409ZM34.0112 11.5821V10.571H30.0585V11.5821H34.0112Z" fill="white"/>
<path d="M3.86072 21.8774C3.7688 22.1532 3.58496 22.429 3.49304 22.7047H5.60724C5.51532 22.3371 5.33148 22.0613 5.23955 21.8774L7.07799 21.6936C7.16992 22.0613 7.35376 22.3371 7.44568 22.7047H11.0306V23.8997H7.16992V24.4513H10.4791V25.5543H7.16992V26.1059H10.4791V27.2089H7.16992V27.7605H11.2145V28.9554H1.47075V25.7382C1.19499 26.1059 0.827298 26.3816 0.551532 26.6574L0 24.9109C1.10306 23.9917 1.93036 22.8886 2.48189 21.6017L3.86072 21.8774ZM10.663 32.9081H9.00836V32.4485H2.9415V32.9081H1.37883V29.3231H10.663V32.9081ZM9.00836 31.3454V30.5181H2.9415V31.3454H9.00836ZM5.60724 23.8997H3.03343V24.4513H5.69916V23.8997H5.60724ZM5.60724 25.5543H3.03343V26.1059H5.69916V25.5543H5.60724ZM3.03343 27.6685H5.69916V27.117H3.03343V27.6685Z" fill="white"/>
<path d="M23.348 28.7716V30.0585H20.3146C21.3257 30.3343 22.3369 30.7939 23.4399 31.4373L22.9803 32.8162C21.7853 32.0808 20.5904 31.5292 19.3954 31.0696L19.9469 29.9666H18.9358V31.7131C18.9358 32.5404 18.5681 32.9081 17.7408 32.9081H16.0862L15.8104 31.4373C16.4539 31.4373 16.8216 31.5292 16.9135 31.5292C17.0973 31.5292 17.2812 31.4373 17.2812 31.2535V30.0585H15.5347L16.3619 30.9777C15.2589 31.805 14.1558 32.3565 13.0528 32.7242L12.3174 31.2535C13.3285 31.0696 14.2477 30.7019 15.2589 30.0585H12.5012V28.7716H23.348ZM23.348 21.9694V23.2563H19.9469V23.8078H22.8884V26.7493H12.9608V23.8078H15.8104V23.2563H12.5012V21.9694H23.348ZM22.3369 27.2089V28.312H13.3285V27.2089H22.3369ZM15.7185 24.8189H14.4316V25.7382H15.7185V24.8189ZM18.4762 23.2563H17.1892V23.8078H18.4762V23.2563ZM18.4762 24.8189H17.1892V25.7382H18.4762V24.8189ZM21.2338 24.8189H19.855V25.7382H21.2338V24.8189Z" fill="white"/>
<path d="M26.9331 30.7938L27.9442 27.9442H28.9554L29.9665 30.7938H29.2312L29.0473 30.2423H27.9442L27.7604 30.7938H26.9331ZM28.0362 29.6907H28.7715L28.4958 28.7715C28.4958 28.7715 28.4958 28.6796 28.4958 28.5877C28.4958 28.4957 28.4958 28.4038 28.4039 28.3119C28.4039 28.4038 28.4039 28.4957 28.3119 28.4957C28.3119 28.5877 28.3119 28.5877 28.22 28.6796L28.0362 29.6907Z" fill="white"/>
<path d="M30.334 30.7938V27.9442H31.1613C31.4371 27.9442 31.7128 27.9442 31.8047 27.9442C31.8967 27.9442 32.0805 28.0361 32.1724 28.1281C32.2643 28.22 32.3563 28.3119 32.4482 28.4038C32.5401 28.4957 32.5401 28.6796 32.5401 28.7715C32.5401 28.9554 32.4482 29.1392 32.3563 29.323C32.2643 29.5069 32.0805 29.5988 31.8967 29.5988L32.632 30.7938H31.7128L31.0694 29.6907V30.7938H30.334ZM31.0694 29.2311H31.2532C31.437 29.2311 31.529 29.2311 31.6209 29.1392C31.7128 29.0473 31.7128 28.9554 31.7128 28.8634C31.7128 28.6796 31.7128 28.5877 31.6209 28.5877C31.529 28.4957 31.437 28.4957 31.2532 28.4957H31.0694V29.2311Z" fill="white"/>
<path d="M33.4594 30.7938V28.5877H32.8159V27.9442H34.9301V28.5877H34.2867V30.7938H33.4594Z" fill="white"/>
<path d="M35.5736 29.8746C35.6655 29.9665 35.8494 30.1503 35.9413 30.1503C36.0332 30.2423 36.1251 30.2423 36.309 30.2423C36.4009 30.2423 36.4928 30.2423 36.5848 30.1503C36.6767 30.0584 36.6767 30.0584 36.6767 29.9665C36.6767 29.8746 36.6767 29.7827 36.5848 29.7827C36.4928 29.6907 36.4009 29.6907 36.2171 29.5988C35.9413 29.5069 35.7575 29.415 35.6655 29.323C35.5736 29.2311 35.4817 29.0473 35.4817 28.8634C35.4817 28.5877 35.5736 28.4038 35.7575 28.22C35.9413 28.0361 36.2171 27.9442 36.4928 27.9442C36.6767 27.9442 36.7686 27.9442 36.9524 28.0361C37.1363 28.0361 37.2282 28.1281 37.3201 28.22L37.0444 28.7715C36.8605 28.5877 36.7686 28.4957 36.6767 28.4957C36.5848 28.4957 36.4928 28.4038 36.4009 28.4038C36.309 28.4038 36.2171 28.4038 36.2171 28.4957C36.1251 28.4957 36.1251 28.5877 36.1251 28.6796C36.1251 28.7715 36.1251 28.7715 36.2171 28.8634C36.309 28.8634 36.4009 28.9554 36.4928 28.9554C36.7686 29.0473 37.0444 29.1392 37.1363 29.2311C37.2282 29.323 37.2282 29.415 37.3201 29.5069C37.3201 29.5988 37.4121 29.6907 37.4121 29.8746C37.4121 30.1503 37.3201 30.4261 37.1363 30.61C36.9524 30.7938 36.6767 30.8857 36.309 30.8857C36.1251 30.8857 35.9413 30.8857 35.7575 30.7938C35.5736 30.7019 35.4817 30.61 35.2979 30.518L35.5736 29.8746Z" fill="white"/>
<path d="M39.8021 30.7938V28.5877H39.1587V27.9442H41.181V28.5877H40.5375V30.7938H39.8021Z" fill="white"/>
<path d="M41.7324 30.7938V27.9442H42.5597V30.7938H41.7324Z" fill="white"/>
<path d="M45.4093 28.0361V28.8634C45.3173 28.7715 45.2254 28.6796 45.1335 28.5877C44.9496 28.4958 44.8577 28.4958 44.7658 28.4958C44.582 28.4958 44.3981 28.5877 44.2143 28.7715C44.0304 28.9554 44.0304 29.1392 44.0304 29.415C44.0304 29.5988 44.1223 29.8746 44.2143 29.9665C44.3981 30.1503 44.49 30.1503 44.7658 30.1503C44.8577 30.1503 45.0416 30.1504 45.1335 30.0584C45.2254 29.9665 45.3173 29.8746 45.4093 29.7827V30.61C45.3173 30.7019 45.1335 30.7019 45.0416 30.7019C44.9496 30.7019 44.7658 30.7019 44.6739 30.7019C44.49 30.7019 44.3981 30.7019 44.2143 30.61C44.1223 30.61 43.9385 30.518 43.8466 30.4261C43.6627 30.2423 43.4789 30.0584 43.387 29.8746C43.295 29.6907 43.2031 29.415 43.2031 29.1392C43.2031 28.9554 43.2031 28.6796 43.295 28.4958C43.387 28.3119 43.4789 28.1281 43.5708 28.0361C43.6627 27.8523 43.8466 27.7604 44.0304 27.7604C44.2143 27.6685 44.3981 27.6685 44.582 27.6685C44.6739 27.6685 44.8577 27.6685 44.9496 27.6685C45.1335 27.8523 45.3173 27.9442 45.4093 28.0361Z" fill="white"/>
<path d="M46.0527 30.7938V27.9442H46.7881V29.2311L47.7073 27.9442H48.6266L47.5235 29.323L48.7185 30.7938H47.7073L46.7881 29.5069V30.7938H46.0527Z" fill="white"/>
<path d="M49.0864 30.7938V27.9442H50.8329V28.4957H49.8218V28.9554H50.741V29.5988H49.8218V30.0584H50.8329V30.7019H49.0864V30.7938Z" fill="white"/>
<path d="M51.9359 30.7938V28.5877H51.2925V27.9442H53.3148V28.5877H52.6713V30.7938H51.9359Z" fill="white"/>
<path d="M72.2505 22.7967C71.9748 22.1532 72.3424 21.4178 72.894 21.1421C73.5374 20.8663 74.1809 21.234 74.4566 21.8775C74.7324 22.5209 74.3647 23.2563 73.8132 23.532C73.1697 23.8078 72.5263 23.4401 72.2505 22.7967Z" fill="#D72A34"/>
<path d="M68.6656 24.2674C68.3898 23.6239 68.7575 22.8885 69.309 22.6128C69.9525 22.337 70.5959 22.7047 70.8717 23.3482C71.1475 23.9916 70.7798 24.727 70.2282 25.0028C69.6767 25.2785 68.9413 24.9108 68.6656 24.2674Z" fill="#D72A34"/>
<path d="M65.1724 25.8301C64.8966 25.1867 65.2643 24.4513 65.8158 24.1755C66.4593 23.8998 67.1027 24.2674 67.3785 24.9109C67.6543 25.5544 67.2866 26.2897 66.7351 26.5655C66.0916 26.7493 65.3562 26.4736 65.1724 25.8301Z" fill="#D72A34"/>
<path d="M61.5874 27.3008C61.3117 26.6574 61.6794 25.922 62.2309 25.6462C62.8743 25.3705 63.5178 25.7381 63.7936 26.3816C64.0693 27.0251 63.7016 27.7604 63.1501 28.0362C62.5067 28.312 61.8632 27.9443 61.5874 27.3008Z" fill="#D72A34"/>
<path d="M58.0025 28.7715C57.7267 28.1281 58.0944 27.3927 58.6459 27.1169C59.2894 26.8412 59.9328 27.2089 60.2086 27.8523C60.4844 28.4958 60.1167 29.2311 59.5651 29.5069C59.0136 29.7827 58.2782 29.415 58.0025 28.7715Z" fill="#D72A34"/>
<path d="M54.5093 30.2423C54.2335 29.5989 54.6012 28.8635 55.1528 28.5878C55.7962 28.312 56.4397 28.6797 56.7154 29.3231C56.9912 29.9666 56.6235 30.702 56.072 30.9777C55.4285 31.2535 54.6931 30.9777 54.5093 30.2423Z" fill="#D72A34"/>
<path d="M70.688 18.6602C70.4122 18.0167 70.7799 17.2814 71.3315 17.0056C71.9749 16.7298 72.6184 17.0975 72.8942 17.741C73.1699 18.3844 72.8022 19.1198 72.2507 19.3956C71.6072 19.6713 70.9638 19.3036 70.688 18.6602Z" fill="#D72A34"/>
<path d="M67.1031 20.1309C66.8273 19.4874 67.195 18.7521 67.7465 18.4763C68.39 18.2005 69.0334 18.5682 69.3092 19.2117C69.5849 19.8551 69.2173 20.5905 68.6657 20.8663C68.1142 21.142 67.3788 20.7744 67.1031 20.1309Z" fill="#D72A34"/>
<path d="M63.6099 21.6016C63.3341 20.9581 63.7018 20.2228 64.2533 19.947C64.8968 19.6712 65.5403 20.0389 65.816 20.6824C66.0918 21.3258 65.7241 22.0612 65.1726 22.337C64.5291 22.6127 63.7937 22.337 63.6099 21.6016Z" fill="#D72A34"/>
<path d="M60.0249 23.1643C59.7492 22.5209 60.1169 21.7855 60.6684 21.5098C61.3118 21.234 61.9553 21.6017 62.2311 22.2451C62.5068 22.8886 62.1391 23.624 61.5876 23.8997C60.9442 24.0836 60.3007 23.8078 60.0249 23.1643Z" fill="#D72A34"/>
<path d="M56.44 24.635C56.1642 23.9916 56.5319 23.2562 57.0834 22.9805C57.7269 22.7047 58.3703 23.0724 58.6461 23.7158C58.9219 24.3593 58.5542 25.0947 58.0026 25.3704C57.4511 25.6462 56.7157 25.2785 56.44 24.635Z" fill="#D72A34"/>
<path d="M52.9468 26.1059C52.671 25.4624 53.0387 24.727 53.5903 24.4513C54.2337 24.1755 54.8772 24.5432 55.1529 25.1867C55.4287 25.8301 55.061 26.5655 54.5095 26.8412C53.866 27.117 53.1306 26.7493 52.9468 26.1059Z" fill="#D72A34"/>
<path d="M69.125 14.5236C68.8493 13.8801 69.217 13.1448 69.7685 12.869C70.4119 12.5932 71.0554 12.9609 71.3312 13.6044C71.6069 14.2478 71.2392 14.9832 70.6877 15.259C70.0443 15.4428 69.4008 15.1671 69.125 14.5236Z" fill="#D72A34"/>
<path d="M65.5401 15.9944C65.2643 15.351 65.632 14.6156 66.1835 14.3398C66.827 14.0641 67.4704 14.4318 67.7462 15.0752C68.022 15.7187 67.6543 16.454 67.1027 16.7298C66.5512 17.0056 65.8158 16.6379 65.5401 15.9944Z" fill="#D72A34"/>
<path d="M62.0469 17.4651C61.7711 16.8217 62.1388 16.0863 62.6904 15.8105C63.3338 15.5348 63.9773 15.9025 64.253 16.5459C64.5288 17.1894 64.1611 17.9247 63.6096 18.2005C62.9661 18.4763 62.2307 18.1086 62.0469 17.4651Z" fill="#D72A34"/>
<path d="M58.4619 19.0279C58.1862 18.3844 58.5539 17.649 59.1054 17.3733C59.7489 17.0975 60.3923 17.4652 60.6681 18.1087C60.9438 18.7521 60.5761 19.4875 60.0246 19.7632C59.3812 19.9471 58.7377 19.6713 58.4619 19.0279Z" fill="#D72A34"/>
<path d="M54.877 20.4986C54.6012 19.8551 54.9689 19.1197 55.5204 18.844C56.1639 18.5682 56.8073 18.9359 57.0831 19.5794C57.3589 20.2228 56.9912 20.9582 56.4397 21.234C55.8881 21.4178 55.1527 21.142 54.877 20.4986Z" fill="#D72A34"/>
<path d="M51.3843 21.9693C51.1085 21.3258 51.4762 20.5904 52.0278 20.3147C52.6712 20.0389 53.3147 20.4066 53.5904 21.0501C53.8662 21.6935 53.4985 22.4289 52.947 22.7047C52.3035 22.9804 51.5681 22.6127 51.3843 21.9693Z" fill="#D72A34"/>
<path d="M67.5625 10.3871C67.2868 9.74367 67.6544 9.0083 68.206 8.73253C68.8494 8.45676 69.4929 8.82445 69.7686 9.46791C70.0444 10.1114 69.6767 10.8467 69.1252 11.1225C68.4817 11.3063 67.8383 11.0306 67.5625 10.3871Z" fill="#D72A34"/>
<path d="M63.9776 11.858C63.7018 11.2145 64.0695 10.4791 64.621 10.2034C65.2645 9.92759 65.9079 10.2953 66.1837 10.9387C66.4595 11.5822 66.0918 12.3176 65.5403 12.5933C64.9887 12.7772 64.2533 12.5014 63.9776 11.858Z" fill="#D72A34"/>
<path d="M60.4844 13.3287C60.2086 12.6852 60.5763 11.9498 61.1279 11.6741C61.7713 11.3983 62.4148 11.766 62.6905 12.4094C62.9663 13.0529 62.5986 13.7883 62.0471 14.064C61.4036 14.3398 60.6682 13.9721 60.4844 13.3287Z" fill="#D72A34"/>
<path d="M56.8994 14.7995C56.6237 14.156 56.9914 13.4206 57.5429 13.1449C58.1864 12.8691 58.8298 13.2368 59.1056 13.8803C59.3813 14.5237 59.0137 15.2591 58.4621 15.5349C57.8187 15.8106 57.1752 15.4429 56.8994 14.7995Z" fill="#D72A34"/>
<path d="M53.3145 16.3621C53.0387 15.7186 53.4064 14.9833 53.9579 14.7075C54.6014 14.4317 55.2449 14.7994 55.5206 15.4429C55.7964 16.0863 55.4287 16.8217 54.8772 17.0975C54.3256 17.2813 53.5902 17.0056 53.3145 16.3621Z" fill="#D72A34"/>
<path d="M49.8213 17.8328C49.5456 17.1893 49.9132 16.454 50.4648 16.1782C51.1082 15.9024 51.7517 16.2701 52.0274 16.9136C52.3032 17.557 51.9355 18.2924 51.384 18.5682C50.7405 18.8439 50.0052 18.4763 49.8213 17.8328Z" fill="#D72A34"/>
<path d="M66 6.15875C65.7243 5.5153 66.0919 4.77992 66.6435 4.50415C67.2869 4.32031 68.0223 4.59608 68.2061 5.23953C68.4819 5.88298 68.1142 6.61836 67.5627 6.89413C66.9192 7.16989 66.2758 6.8022 66 6.15875Z" fill="#D72A34"/>
<path d="M62.5069 7.72142C62.2311 7.07796 62.5988 6.34259 63.1503 6.06682C63.7938 5.79105 64.4372 6.15874 64.713 6.8022C64.9888 7.44565 64.6211 8.18103 64.0695 8.45679C63.4261 8.64064 62.6907 8.36487 62.5069 7.72142Z" fill="#D72A34"/>
<path d="M58.9219 9.19218C58.6461 8.54873 59.0138 7.81335 59.5654 7.53758C60.2088 7.26182 60.8523 7.62951 61.128 8.27296C61.4038 8.91641 61.0361 9.65179 60.4846 9.92755C59.8411 10.2033 59.1057 9.83563 58.9219 9.19218Z" fill="#D72A34"/>
<path d="M55.3369 10.6629C55.0612 10.0195 55.4289 9.28411 55.9804 9.00835C56.6238 8.73258 57.2673 9.10027 57.5431 9.74372C57.8188 10.3872 57.4511 11.1226 56.8996 11.3983C56.2562 11.6741 55.6127 11.3064 55.3369 10.6629Z" fill="#D72A34"/>
<path d="M51.752 12.1337C51.4762 11.4903 51.8439 10.7549 52.3954 10.4791C53.0389 10.2033 53.6823 10.571 53.9581 11.2145C54.2339 11.8579 53.8662 12.5933 53.3147 12.8691C52.7631 13.1449 52.0277 12.8691 51.752 12.1337Z" fill="#D72A34"/>
<path d="M48.2588 13.6963C47.9831 13.0529 48.3507 12.3175 48.9023 12.0417C49.5457 11.766 50.1892 12.1337 50.465 12.7771C50.7407 13.4206 50.373 14.1559 49.8215 14.4317C49.178 14.6156 48.4427 14.3398 48.2588 13.6963Z" fill="#D72A34"/>
<path d="M94.6797 28.8635C94.6797 27.7605 95.1393 26.8413 95.9666 26.014C96.7939 25.1867 97.805 24.819 99 24.819C100.195 24.819 101.206 25.1867 102.033 26.014C102.861 26.8413 103.32 27.7605 103.32 28.8635C103.32 29.9666 102.861 30.9777 102.033 31.7131C101.206 32.5404 100.195 32.9081 99 32.9081C97.897 32.9081 96.9777 32.5404 96.1504 31.897C95.1393 31.1616 94.6797 30.1504 94.6797 28.8635ZM95.8747 28.8635C95.8747 29.6908 96.1504 30.4262 96.7939 30.9777C97.4374 31.5293 98.0808 31.805 98.9081 31.805C99.7354 31.805 100.471 31.5293 101.114 30.9777C101.666 30.4262 102.033 29.6908 102.033 28.8635C102.033 28.0362 101.758 27.3009 101.114 26.7493C100.563 26.1978 99.8273 25.922 99 25.922C98.1727 25.922 97.4373 26.1978 96.8858 26.7493C96.2424 27.3009 95.8747 28.0362 95.8747 28.8635Z" fill="white"/>
<path d="M105.527 29.6908V33H104.332V24.819H105.71C106.354 24.819 107.457 24.9109 107.825 25.0028C108.192 25.0947 108.468 25.2786 108.744 25.5543C109.203 26.014 109.479 26.5655 109.479 27.3009C109.479 28.0362 109.203 28.6797 108.744 29.0474C108.284 29.507 107.549 29.6908 106.722 29.6908H105.527ZM105.527 28.4959H106.538C107.641 28.4959 108.192 28.0362 108.192 27.2089C108.192 26.3816 107.641 25.922 106.446 25.922H105.435V28.4959H105.527Z" fill="white"/>
<path d="M114.903 25.922H111.593V27.8524H114.811V29.0474H111.593V31.805H114.903V33H110.398V24.819H114.903V25.922Z" fill="white"/>
<path d="M121.337 24.819V30.2424L116.281 24.819H116.005V33H117.108V27.5766L122.164 33H122.532V24.819H121.337Z" fill="white"/>
<path d="M126.669 25.922V33H125.474V25.922H123.635V24.819H128.599V25.922H126.669Z" fill="white"/>
<path d="M130.805 24.819V33H129.61V24.819H130.805Z" fill="white"/>
<path d="M134.298 28.8635L131.908 24.819H133.287L135.033 27.7605L136.872 24.819H138.251L135.677 28.8635L138.159 33H136.78L134.941 29.9666L133.103 33H131.724L134.298 28.8635Z" fill="white"/>
<path d="M124.463 1.01113C124.463 1.10305 124.463 1.19497 124.463 1.19497V2.11419C124.463 2.84957 123.911 3.4011 123.176 3.4011C122.532 3.4011 121.981 2.84957 121.981 2.11419C121.613 2.29804 121.153 2.5738 120.786 2.84957C117.385 5.14762 113.248 6.52645 108.744 6.52645C105.435 6.52645 102.309 5.79107 99.5518 4.50416V19.9471H121.981V19.4875C121.981 18.7521 122.532 18.2005 123.176 18.2005C123.911 18.2005 124.463 18.7521 124.463 19.4875V19.9471H133.287V0.275753C132.552 0.0919092 128.875 -0.551545 124.463 1.01113ZM124.555 15.8106C124.555 16.5459 124.003 17.0975 123.268 17.0975C122.624 17.0975 122.073 16.5459 122.073 15.8106V14.8914C122.073 14.2479 122.624 13.6044 123.268 13.6044C124.003 13.6044 124.555 14.156 124.555 14.8914V15.8106ZM124.555 11.2145C124.555 11.9498 124.003 12.5014 123.268 12.5014C122.624 12.5014 122.073 11.9498 122.073 11.2145V10.2953C122.073 9.6518 122.624 9.00834 123.268 9.00834C124.003 9.00834 124.555 9.55987 124.555 10.2953V11.2145ZM124.555 6.71029C124.555 7.44567 124.003 7.9972 123.268 7.9972C122.624 7.9972 122.073 7.44567 122.073 6.71029V5.79107C122.073 5.0557 122.624 4.50416 123.268 4.50416C124.003 4.50416 124.555 5.0557 124.555 5.79107V6.71029Z" fill="url(#paint0_linear)"/>
<path d="M89.8076 24.0836L84.1084 18.4763" stroke="white" stroke-width="0.9648" stroke-miterlimit="10"/>
<path d="M84.1084 24.0836L89.8076 18.4763" stroke="white" stroke-width="0.9648" stroke-miterlimit="10"/>
</g>
<defs>
<linearGradient id="paint0_linear" x1="133.058" y1="9.9647" x2="99.8688" y2="9.9647" gradientUnits="userSpaceOnUse">
<stop offset="0.0122699" stop-color="#CC3471"/>
<stop offset="0.8281" stop-color="#DD7332"/>
</linearGradient>
<clipPath id="clip0">
<rect width="138.251" height="33" fill="white"/>
</clipPath>
</defs>
</svg>
