<svg width="30" height="20" viewBox="0 0 30 20" fill="none" xmlns="http://www.w3.org/2000/svg">
<path d="M1.66667 11.4423C2.58714 11.4423 3.33333 10.7105 3.33333 9.80771C3.33333 8.90494 2.58714 8.1731 1.66667 8.1731C0.746192 8.1731 0 8.90494 0 9.80771C0 10.7105 0.746192 11.4423 1.66667 11.4423Z" fill="#F6F6F6"/>
<path d="M28.4337 8.1731H8.23366C7.36841 8.1731 6.66699 8.86103 6.66699 9.70963V9.90579C6.66699 10.7544 7.36841 11.4423 8.23366 11.4423H28.4337C29.2989 11.4423 30.0003 10.7544 30.0003 9.90579V9.70963C30.0003 8.86103 29.2989 8.1731 28.4337 8.1731Z" fill="#F6F6F6"/>
<path d="M28.4333 16.3462H1.56667C0.701421 16.3462 0 17.0341 0 17.8827V18.0789C0 18.9275 0.701421 19.6154 1.56667 19.6154H28.4333C29.2986 19.6154 30 18.9275 30 18.0789V17.8827C30 17.0341 29.2986 16.3462 28.4333 16.3462Z" fill="#F6F6F6"/>
<path d="M28.4333 0H1.56667C0.701421 0 0 0.687931 0 1.53654V1.73269C0 2.5813 0.701421 3.26923 1.56667 3.26923H28.4333C29.2986 3.26923 30 2.5813 30 1.73269V1.53654C30 0.687931 29.2986 0 28.4333 0Z" fill="#F6F6F6"/>
</svg>
